
<svg width="20" height="20" viewBox="0 0 20 20" fill="none" xmlns="http://www.w3.org/2000/svg">
  <path d="M3.33337 11.25V3.33332C3.33337 2.8913 3.50897 2.46737 3.82153 2.15481C4.13409 1.84225 4.55801 1.66666 5.00004 1.66666H12.0834L16.6667 6.24999V16.6667C16.6667 17.1087 16.4911 17.5326 16.1786 17.8452C15.866 18.1577 15.4421 18.3333 15 18.3333H10.4167" stroke-width="2" stroke-linecap="round" stroke-linejoin="round"/>
  <path d="M11.6666 1.66666V6.66666H16.6666"  stroke-width="2" stroke-linecap="round" stroke-linejoin="round"/>
  <path d="M8.68337 10.5083C8.84589 10.3458 9.03881 10.2169 9.25114 10.129C9.46348 10.041 9.69105 9.99576 9.92087 9.99576C10.1507 9.99576 10.3783 10.041 10.5906 10.129C10.8029 10.2169 10.9959 10.3458 11.1584 10.5083C11.3209 10.6709 11.4498 10.8638 11.5377 11.0761C11.6257 11.2884 11.671 11.516 11.671 11.7458C11.671 11.9757 11.6257 12.2032 11.5377 12.4156C11.4498 12.6279 11.3209 12.8208 11.1584 12.9833L6.62504 17.5L3.33337 18.3333L4.15837 15.0417L8.68337 10.5083Z" stroke-width="2" stroke-linecap="round" stroke-linejoin="round"/>
</svg>